inDegrees=no
num_controls=7
num_derivatives=13
num_iterations=74
num_multipliers=7
num_parameters=0
num_slacks=7
num_states=26
objective=0.333910
objective_accelerations=0.037166
objective_balance=0.001329
objective_effort=0.027245
objective_height=0.266699
objective_ligament=0.001471
solver_duration=770.238735
status=Solve_Succeeded
success=true
DataType=double
version=3
OpenSimVersion=4.5
endheader
time	/jointset/ground_pelvis/pelvis_tilt/value	/jointset/ground_pelvis/pelvis_tx/value	/jointset/ground_pelvis/pelvis_ty/value	/jointset/hip_r/hip_flexion_r/value	/jointset/hip_r/hip_adduction_r/value	/jointset/hip_r/hip_rotation_r/value	/jointset/back/lumbar_extension/value	/jointset/patellofemoral_r/patellar_flexion_r/value	/jointset/knee_r/knee_flexion_r/value	/jointset/knee_r/knee_adduction_r/value	/jointset/knee_r/knee_rotation_r/value	/jointset/ankle_r/ankle_angle_r/value	/jointset/subtalar_r/subtalar_angle_r/value	/jointset/ground_pelvis/pelvis_tilt/speed	/jointset/ground_pelvis/pelvis_tx/speed	/jointset/ground_pelvis/pelvis_ty/speed	/jointset/hip_r/hip_flexion_r/speed	/jointset/hip_r/hip_adduction_r/speed	/jointset/hip_r/hip_rotation_r/speed	/jointset/back/lumbar_extension/speed	/jointset/patellofemoral_r/patellar_flexion_r/speed	/jointset/knee_r/knee_flexion_r/speed	/jointset/knee_r/knee_adduction_r/speed	/jointset/knee_r/knee_rotation_r/speed	/jointset/ankle_r/ankle_angle_r/speed	/jointset/subtalar_r/subtalar_angle_r/speed	/forceset/tau_hip_flexion_r	/forceset/tau_hip_adduction_r	/forceset/tau_hip_rotation_r	/forceset/tau_knee_flexion_r	/forceset/tau_ankle_angle_r	/forceset/tau_subtalar_angle_r	/forceset/tau_lumbar_extension	lambda_cid13_p0	lambda_cid14_p0	lambda_cid14_p1	lambda_cid14_p2	lambda_cid14_p3	lambda_cid14_p4	lambda_cid14_p5	/jointset/ground_pelvis/pelvis_tilt/accel	/jointset/ground_pelvis/pelvis_tx/accel	/jointset/ground_pelvis/pelvis_ty/accel	/jointset/hip_r/hip_flexion_r/accel	/jointset/hip_r/hip_adduction_r/accel	/jointset/hip_r/hip_rotation_r/accel	/jointset/back/lumbar_extension/accel	/jointset/patellofemoral_r/patellar_flexion_r/accel	/jointset/knee_r/knee_flexion_r/accel	/jointset/knee_r/knee_adduction_r/accel	/jointset/knee_r/knee_rotation_r/accel	/jointset/ankle_r/ankle_angle_r/accel	/jointset/subtalar_r/subtalar_angle_r/accel	gamma_cid13_p0	gamma_cid14_p0	gamma_cid14_p1	gamma_cid14_p2	gamma_cid14_p3	gamma_cid14_p4	gamma_cid14_p5
1	-0.2835674955138077	-0.009084612745393846	0.6303272776683937	1.477399242585401	-0.2382365619892628	-0.08732254488143203	-0.7853969450419853	1.510547272978221	1.510547272978215	-0.1745027547510925	0.1738506742633826	0.4362310730954811	0.1759086703076407	0.07054629215901474	0.006846493440407235	0.01670289142289199	-0.10534696866701	-0.001403608766621162	0.001173715004837417	0.000237789951549333	-0.01906970108608022	-0.01906970108608063	0.008272474571977445	-0.000457586428807679	0.01528360992925739	0.00519593953962694	-0.3657465416450465	0.04893987649928619	0.007212078985616203	-0.4324844851637072	-0.04712765928843609	0.0001649956425881941	0.3753170161782842	-0.04106743906525032	-67.58225911351968	-16.51984959730401	8.49082185167768	8.660318446942458	-774.3392460860864	52.57052858646653	1.387681795278069	0.1553329250690958	1.885388932937904	-5.679851257087753	0.2365695657335576	-0.322414269999402	0.0214444040904829	-5.150335010183655	-5.150335010183665	1.034323782780537	0.001534709082616408	-1.050988031740348	-0.08686939382435287	-7.593205143152869e-11	1.290185139695848e-09	1.295746873401296e-08	2.654320571949529e-09	-3.203820981559116e-09	-2.783918010697425e-09	1.54585402715209e-08
1.01	-0.2827931071076768	-0.009008171990869054	0.6305883459360997	1.476062472212869	-0.2382389684142513	-0.0873241885733331	-0.7853912527409485	1.510100015757377	1.510100015757373	-0.1743655344531402	0.1738460050242334	0.4363318218288544	0.1759560783148421	0.08435203823484314	0.00846639673860714	0.03550047110038079	-0.1620283145032134	0.0009089769955069902	-0.001489044378300495	0.001048680481215471	-0.07032991694128184	-0.07032991694128235	0.01918517974217431	-0.0004681437893580567	0.004918252700726726	0.004286663730101086	-0.3666974967905323	0.04896285507515637	0.007225044973671484	-0.4318840333715218	-0.04776983149544628	0.000236525900442123	0.3764750147127282	-0.04104996629207509	-67.79148275534787	-16.506644507083	8.467273500413766	8.450187676897357	-774.6925318855989	52.54319557641787	1.380120612669158	0.169028478983287	1.875396758616734	-5.665455443802121	0.2266085537426997	-0.2361915558218897	0.1331129106189823	-5.106092331464597	-5.106092331464549	1.121782520546758	-0.001117592847133845	-1.021492275547999	-0.09279177053508256	6.827803346483941e-09	1.106954989353352e-08	4.991882663369521e-08	5.717509447736572e-08	-7.181639225847524e-09	-1.029341062313112e-08	1.039671477831378e-07
1.02	-0.2818800413210027	-0.008914790314004412	0.6310370808552731	1.474158252542597	-0.2382186478871576	-0.08735205681574475	-0.785373011227946	1.509141710886326	1.509141710886325	-0.1741187793762048	0.1738414768846297	0.4363304804486233	0.1759944265447451	0.09828176826803098	0.01023467790837721	0.05423622171635484	-0.2188368282160292	0.003141781649248076	-0.004071195095476444	0.002747632339447935	-0.1212792311275317	-0.1212792311275322	0.03017943036867051	-0.0004293665188395617	-0.005134412813348114	0.00338398407983988	-0.3676484519359935	0.04898583365102028	0.007238010961787745	-0.4312835815793318	-0.0484120037024646	0.0003080561582787281	0.3776330132471933	-0.04103909808167443	-68.00792023708401	-16.48869248373836	8.436103001857418	8.23863637406726	-775.1706685830659	52.55697397303456	1.412478586749941	0.1850084993831441	1.873023120634956	-5.705284832410245	0.2206133440561414	-0.3062925368070156	0.1990566698036763	-5.088154676393306	-5.088154676393302	1.050632874040399	0.01140163529639042	-0.9884496888491524	-0.08555016197141325	1.301107930195102e-08	2.009560168452657e-08	8.18753730498585e-08	1.024813413286747e-07	-1.224555719343894e-08	-1.780934698945013e-08	1.821474911525306e-07
1.03	-0.2808279681966492	-0.008803115790534357	0.631672803302494	1.471686364540499	-0.2381763157683156	-0.08740552049995769	-0.7853329313583122	1.507675031033678	1.507675031033678	-0.1737618014905787	0.1738375516031986	0.4362295751670575	0.176023631689161	0.1120616472338685	0.01211193890909039	0.07289176691319806	-0.275455849106947	0.005319549000951784	-0.006621721213506447	0.005458742490668285	-0.1720478827526025	-0.1720478827526028	0.0412210273594523	-0.0003514672999985437	-0.01505428716572912	0.00244321500094235	-0.3679129000674775	0.04904359076972619	0.007351565113456208	-0.4308887662163796	-0.04876023343201205	0.0003073437343207626	0.3782462009229848	-0.04105894923685968	-68.12843880387793	-16.49508121529965	8.419962343674607	8.165314621077203	-775.3983061824226	52.55635708100746	1.350066881985842	0.1908382241767139	1.859339986405988	-5.627466817827401	0.2156133219809848	-0.2294474681884234	0.3356983231948046	-5.069895782931884	-5.069895782931817	1.131651566745911	0.00665727538436906	-0.9949024014009762	-0.1003793674512057	1.918700363045433e-08	2.911396660855181e-08	1.137808499610879e-07	1.476935623937173e-07	-1.732055781126815e-08	-2.53253491083598e-08	2.602224440714924e-07
1.04	-0.2796402314165397	-0.008672317992304694	0.6324945851551227	1.468650835109417	-0.2381123549977034	-0.08748449240913345	-0.7852600283600801	1.505700929589305	1.505700929589305	-0.1732942619440122	0.1738345399559961	0.4360292419233713	0.176043021325468	0.1254144994191111	0.01405933286029888	0.09144810279791576	-0.3315651140136548	0.007467512002794967	-0.009172840087034345	0.009312258058427425	-0.2227635494723902	-0.2227635494723903	0.05229176255618599	-0.0002466396729010858	-0.02502000523684572	0.001420882457953829	-0.3681773481989468	0.04910134788843309	0.007465119265140249	-0.4304939508534265	-0.04910846316156287	0.0003066313103626605	0.3788593885987894	-0.04108528172870234	-68.25612986797647	-16.49673554029093	8.396224119457537	8.088292016677324	-775.7518552459638	52.59646464118349	1.327073230630951	0.199035089482245	1.853181258209862	-5.603333635568269	0.2146524740840259	-0.3064110879066028	0.4275377531114211	-5.077557695336685	-5.077557695336686	1.056460515230778	0.01678731694768362	-0.9976184325961942	-0.1018628547895924	2.43735160181221e-08	3.679855725176283e-08	1.42450607525809e-07	1.883728587770718e-07	-2.152988607445329e-08	-3.182434042612251e-08	3.264015667099221e-07
1.05	-0.2783203665656834	-0.008521645518460488	0.633501438622441	1.465056079321145	-0.2380270967524589	-0.08758902373708224	-0.7851436559038367	1.503220080658452	1.503220080658455	-0.1727159244370326	0.1738327049272858	0.435729114264487	0.1760517666310523	0.1385586279827017	0.01609185797525033	0.1099063799931964	-0.387367516160749	0.009576016537523711	-0.01173019161646837	0.01407752742347921	-0.2733827280770154	-0.2733827280770148	0.06338287766812317	-0.0001181540204372968	-0.03500413051688649	0.000313340714101919	-0.3681985472973912	0.04914895557083915	0.007625319992523228	-0.4297101093309911	-0.049491295564627	0.0003043016405289066	0.3792448951562412	-0.04111352080099082	-68.36660663539038	-16.48972330766978	8.363845915168707	8.014084680553285	-775.6864029693696	52.59070271160773	1.308115047533515	0.2078604479388154	1.839711625680833	-5.565906046106294	0.2077608675366142	-0.2298931834495043	0.5183156631588038	-5.050577607703229	-5.050577607703101	1.136502184804391	0.01127221418796249	-0.9985994066197581	-0.1173715242563045	2.952910928263877e-08	4.444146744869841e-08	1.710192488609517e-07	2.289105012641236e-07	-2.57121620765558e-08	-3.829155015634938e-08	3.922089446520852e-07
